<?xml version="1.0" encoding="UTF-8"?>
<svg width="16px" height="16px" viewBox="0 0 16 16" version="1.1" xmlns="http://www.w3.org/2000/svg" xmlns:xlink="http://www.w3.org/1999/xlink">
    <title>soc-insta</title>
    <g id="Page-1" stroke="none" stroke-width="1" fill="none" fill-rule="evenodd">
        <g id="Artboard" transform="translate(-17.000000, -13.000000)" fill="#FFFFFF">
            <path d="M27.9302313,13.5925904 C28.5789744,13.5925904 29.1952803,13.722339 29.8115861,13.9493991 C30.849575,14.3386449 31.692941,15.1820109 32.0821868,16.2199997 C32.3092468,16.8363056 32.4389954,17.4526115 32.4389954,18.1013545 C32.446047,18.2776434 32.4515656,18.4294051 32.4558845,18.5803004 L32.4605127,18.7624731 C32.4673376,19.0704488 32.469897,19.4128157 32.4708567,19.9788596 L32.4708567,22.5815312 C32.469897,23.1475751 32.4673376,23.489942 32.4605127,23.7979177 L32.4558845,23.9800904 C32.4515656,24.1309857 32.446047,24.2827474 32.4389954,24.4590363 C32.4389954,25.1077793 32.3092468,25.7237608 32.0821868,26.3403911 C31.692941,27.3783799 30.849575,28.2217459 29.8115861,28.6109917 C29.1952803,28.8380518 28.5789744,28.967476 27.9302313,28.967476 C27.3308492,28.9916911 27.0327217,28.998008 26.0665947,28.9996559 L23.4361862,28.9996559 C22.4700592,28.998008 22.1719317,28.9916911 21.5725496,28.967476 C20.9238065,28.967476 20.3075007,28.8380518 19.6911948,28.6109917 C18.6532059,28.2217459 17.80984,27.3783799 17.4205941,26.3403911 C17.1935341,25.7565224 17.0637855,25.1402165 17.0313483,24.4914734 C17.0101937,23.9626068 17.0028355,23.6544845 17.0002762,22.9282677 L17.0002762,19.6969974 C17.0028355,18.9707806 17.0101937,18.6626583 17.0313483,18.1337917 C17.0313483,17.4850486 17.1610969,16.8687428 17.388157,16.2524369 C17.7774028,15.214448 18.6207688,14.3710821 19.6587576,13.9818362 C20.2750635,13.7547762 20.8913694,13.6250276 21.5401124,13.6250276 C22.1042368,13.6024626 22.4015058,13.595595 23.239993,13.5935049 Z M25.6355541,14.9875586 L24.458459,14.9875666 C22.6221275,14.9901473 22.3806578,15.0198251 21.6049867,15.0198251 C21.1184295,15.0198251 20.6318722,15.1171366 20.1777521,15.2793223 C19.4965719,15.5388195 18.9775774,16.0902511 18.7180802,16.7389941 C18.5558945,17.1931143 18.458583,17.6796715 18.458583,18.1662288 C18.4515315,18.3425177 18.4460128,18.4927465 18.4416939,18.6409091 L18.4370658,18.8192481 C18.4302408,19.1199456 18.4276815,19.4507688 18.4267217,20.0036694 L18.4267217,22.5567214 C18.4283533,23.4966524 18.4346077,23.7947798 18.458583,24.394162 C18.458583,24.8807193 18.5558945,25.3672765 18.7180802,25.8213967 C18.9775774,26.4701397 19.4965719,27.0212469 20.1777521,27.2810685 C20.6318722,27.4432542 21.1184295,27.5405657 21.6049867,27.5405657 C22.1338533,27.5617204 22.4281791,27.5690785 23.1358006,27.5716379 L23.4424273,27.572427 C23.4977173,27.572523 23.5552282,27.572603 23.6151517,27.5726696 L25.8227549,27.5726696 C25.8826785,27.572603 25.9401893,27.572523 25.9954793,27.572427 L26.302106,27.5716379 C27.0097275,27.5690785 27.3040533,27.5617204 27.8329199,27.5405657 C28.3194772,27.5405657 28.8060344,27.4432542 29.2601546,27.2810685 C29.9413348,27.0212469 30.4603292,26.5025768 30.7198264,25.8213967 C30.8820122,25.3672765 30.9793236,24.8807193 30.9793236,24.394162 C31.0018886,23.8300376 31.0087562,23.5327686 31.0108463,22.7161212 L31.0108463,19.8442696 C31.0087562,19.0276222 31.0018886,18.7303532 30.9793236,18.1662288 C30.9793236,17.6796715 30.8820122,17.1931143 30.7198264,16.7389941 C30.4603292,16.057814 29.9413348,15.5388195 29.2601546,15.2793223 C28.8060344,15.1171366 28.3194772,15.0198251 27.8329199,15.0198251 C27.6918888,15.0141839 27.5675362,15.0095237 27.4475771,15.005674 L27.269398,15.000486 C26.9728062,14.9927813 26.6652837,14.9896087 26.1548791,14.9883024 L25.8227549,14.9877212 C25.7628314,14.9876545 25.7004951,14.9876012 25.6355541,14.9875586 Z M24.7189533,17.3550405 C26.8922425,17.3550405 28.6762858,19.1390839 28.6762858,21.3126974 C28.6762858,23.4859866 26.8922425,25.27003 24.7189533,25.27003 C22.5456641,25.27003 20.7616208,23.4859866 20.7616208,21.3126974 C20.7616208,19.1390839 22.5456641,17.3550405 24.7189533,17.3550405 Z M24.7189533,18.7501624 C23.3241558,18.7501624 22.1564183,19.8854627 22.1564183,21.3126974 C22.1564183,22.7071706 23.2917186,23.8752324 24.7189533,23.8752324 C26.146188,23.8752324 27.2814883,22.7399321 27.2814883,21.3126974 C27.2814883,19.9178999 26.1137508,18.7501624 24.7189533,18.7501624 Z M28.8385365,16.2523396 C29.3581796,16.2523396 29.7792139,16.6733738 29.7792139,17.193017 C29.7792139,17.7123358 29.3581796,18.1336944 28.8385365,18.1336944 C28.3188933,18.1336944 27.8978591,17.7123358 27.8978591,17.193017 C27.8978591,16.6733738 28.3188933,16.2523396 28.8385365,16.2523396 Z" id="soc-insta"></path>
        </g>
    </g>
</svg>