<?xml version="1.0" encoding="UTF-8"?>
<svg width="18px" height="15px" viewBox="0 0 18 15" version="1.1" xmlns="http://www.w3.org/2000/svg" xmlns:xlink="http://www.w3.org/1999/xlink">
    <title>soc-twit</title>
    <g id="Page-1" stroke="none" stroke-width="1" fill="none" fill-rule="evenodd">
        <g id="Artboard" transform="translate(-17.000000, -41.000000)" fill="#FFFFFF">
            <path d="M34.8298864,42.852275 C34.1710194,43.1451048 33.4755487,43.3281234 32.7800781,43.4013308 C33.5121525,42.9620862 34.097812,42.2666155 34.354038,41.4247299 C33.6585673,41.8273709 32.8898892,42.1202006 32.0846074,42.3032192 C30.7302698,40.8756742 28.4608391,40.8024667 27.0332941,42.1568043 C26.3012197,42.8156713 25.8985788,43.767368 25.8985788,44.7556684 C25.8985788,45.0484982 25.9351825,45.3047242 25.9717862,45.5609503 C23.1166961,45.4145354 20.4080208,44.0601978 18.6144385,41.8639746 C17.6627418,43.4745383 18.1385902,45.5609503 19.7125501,46.6224581 C19.1268906,46.6224581 18.5778348,46.4394395 18.1019865,46.1832135 L18.1019865,46.2198172 C18.1019865,47.9035883 19.3099092,49.4043408 20.9570766,49.7337743 C20.4446245,49.8801892 19.8955687,49.8801892 19.3465129,49.8069818 C19.8223613,51.2711306 21.1400952,52.259431 22.6774514,52.2960347 C21.3963212,53.2843351 19.858965,53.8333909 18.2484013,53.8333909 C17.9555716,53.8333909 17.6627418,53.8333909 17.4065158,53.7967872 C19.0536832,54.8582951 20.9570766,55.4073509 22.8970737,55.4073509 C29.4857433,55.4073509 33.0729078,49.9533966 33.0729078,45.2315168 L33.0729078,44.7556684 C33.7683785,44.2066126 34.354038,43.5843494 34.8298864,42.852275" id="soc-twit"></path>
        </g>
    </g>
</svg>