<?xml version="1.0" encoding="UTF-8"?>
<svg width="17px" height="16px" viewBox="0 0 17 16" version="1.1" xmlns="http://www.w3.org/2000/svg" xmlns:xlink="http://www.w3.org/1999/xlink">
    <title>soc-face</title>
    <g id="Page-1" stroke="none" stroke-width="1" fill="none" fill-rule="evenodd">
        <g id="Artboard" transform="translate(-18.000000, -68.000000)" fill="#FFFFFF">
            <path d="M33.1392925,68 L19.4512168,68 C18.988335,68 18.5915792,68.3636928 18.5915792,68.8596376 L18.5915792,82.5477133 C18.5915792,83.0105951 18.9552721,83.4073509 19.4512168,83.4073509 L26.8242624,83.4073509 L26.8242624,77.4560136 L24.8074204,77.4560136 L24.8074204,75.1416047 L26.8242624,75.1416047 L26.8242624,73.4223295 C26.8242624,71.4385504 28.0475929,70.3474719 29.799931,70.3474719 C30.3950648,70.3474719 30.9901985,70.3805349 31.5853322,70.4466609 L31.5853322,72.5296289 L30.3620018,72.5296289 C29.4031752,72.5296289 29.2047973,72.9925107 29.2047973,73.6537704 L29.2047973,75.1416047 L31.5192062,75.1416047 L31.2216394,77.4560136 L29.2378603,77.4560136 L29.2378603,83.4073509 L33.1723555,83.4073509 C33.6352373,83.4073509 34.0319931,83.043658 34.0319931,82.5477133 L34.0319931,68.8596376 C33.9658671,68.3636928 33.6021743,68 33.1392925,68" id="soc-face"></path>
        </g>
    </g>
</svg>